<?xml version="1.0" encoding="utf-8"?>
<!-- Generator: Adobe Illustrator 23.0.1, SVG Export Plug-In . SVG Version: 6.00 Build 0)  -->
<svg version="1.1" id="Layer_1" xmlns="http://www.w3.org/2000/svg" xmlns:xlink="http://www.w3.org/1999/xlink" x="0px" y="0px"
	 viewBox="0 0 24 24" style="enable-background:new 0 0 24 24;" xml:space="preserve">
<g>
	<path d="M7.3,8.03l3.46,1.95c0.5,0.28,0.8,0.8,0.8,1.37v4.46c0,0.42-0.15,0.82-0.42,1.14l-1.95,2.26c-0.53,0.62-1.47,0.66-2.06,0.1
		c-1.16-1.08-2.77-3.02-2.77-5.41c0-2.46,0.91-4.44,1.53-5.5C6.17,7.91,6.8,7.75,7.3,8.03z"/>
	<path d="M16.7,8.03l-3.46,1.95c-0.5,0.28-0.8,0.8-0.8,1.37v4.46c0,0.42,0.15,0.82,0.42,1.14l1.95,2.26
		c0.53,0.62,1.47,0.66,2.06,0.1c1.16-1.08,2.77-3.02,2.77-5.41c0-2.46-0.91-4.44-1.53-5.5C17.83,7.91,17.2,7.75,16.7,8.03z"/>
	<path d="M15.29,6.44c-0.39-0.17-0.92-0.36-1.53-0.51L14,5.59c0.28-0.41,0.75-0.66,1.25-0.66c0,0,0.48,0.01,0.48-0.34
		s-0.48-0.31-0.48-0.31c-0.71,0-1.38,0.35-1.78,0.93l-0.4,0.58c-0.33-0.05-0.67-0.08-1.01-0.08H12h-0.07
		c-0.46,0-0.92,0.06-1.35,0.14l-0.44-0.63c-0.4-0.58-1.07-0.93-1.78-0.93c0,0-0.4-0.02-0.4,0.31s0.4,0.34,0.4,0.34
		c0.5,0,0.97,0.24,1.25,0.66l0.3,0.43C9.43,6.15,9.01,6.31,8.7,6.44C8.34,6.59,8.24,7.06,8.51,7.34c0.81,0.82,1.98,1.52,2.73,1.93
		c0.47,0.25,1.04,0.25,1.51,0c0.76-0.41,1.92-1.11,2.73-1.93C15.75,7.06,15.65,6.59,15.29,6.44z"/>
</g>
</svg>
