<?xml version="1.0" encoding="utf-8"?>
<!-- Generator: Adobe Illustrator 23.0.1, SVG Export Plug-In . SVG Version: 6.00 Build 0)  -->
<svg version="1.1" id="Layer_1" xmlns="http://www.w3.org/2000/svg" xmlns:xlink="http://www.w3.org/1999/xlink" x="0px" y="0px"
	 viewBox="0 0 24 24" style="enable-background:new 0 0 24 24;" xml:space="preserve">
<g>
	<g>
		<path d="M11.83,3.49c-2.22,0.04-4.21,0.94-5.7,2.36c-1.66,1.59-2.69,3.84-2.64,6.32c0.05,2.48,1.16,4.69,2.89,6.21
			c1.54,1.36,3.57,2.18,5.79,2.13c4.7-0.09,8.43-3.98,8.34-8.68C20.42,7.13,16.53,3.4,11.83,3.49z M12.12,17.93
			c-0.3,0.01-0.6-0.02-0.89-0.06c2.13-1.12,3.56-3.36,3.51-5.93C14.69,9.38,13.17,7.19,11,6.16c0.29-0.05,0.58-0.08,0.88-0.09
			c3.27-0.06,5.98,2.54,6.05,5.81C18,15.15,15.39,17.87,12.12,17.93z"/>
	</g>
</g>
</svg>
