<?xml version="1.0" encoding="utf-8"?>
<!-- Generator: Adobe Illustrator 23.0.1, SVG Export Plug-In . SVG Version: 6.00 Build 0)  -->
<svg version="1.1" id="Layer_1" xmlns="http://www.w3.org/2000/svg" xmlns:xlink="http://www.w3.org/1999/xlink" x="0px" y="0px"
	 viewBox="0 0 24 24" style="enable-background:new 0 0 24 24;" xml:space="preserve">
<path d="M16.98,7.91c-1.28-0.96-2.87-1.52-4.59-1.49c-0.15,0-0.29,0.01-0.44,0.03l-0.02-0.24l0.52-3.45L5.82,9.45
	C5.81,9.47,5.79,9.49,5.77,9.51L4.1,12.43c-0.13,0.23,0.05,0.51,0.31,0.49l2.8-0.2c0.08-0.01,0.16-0.04,0.21-0.1l0.61-0.64
	l3.84-0.26c0.2-0.24,0.31-0.37,0.52-0.61l-0.08-0.86c0.24,0.04,0.48,0.08,0.72,0.14c3.47,0.74,3.57,5.7,0.13,6.57
	c-1.16,0.29-2.27,0.46-3.13,0.48c-1.72,0.03-3.31-0.53-4.59-1.49c0.92,3.12,3.83,5.37,7.24,5.3c1.66-0.03,3.18-0.62,4.4-1.57
	c1.78-1.39,2.91-3.56,2.86-5.99C19.89,11.32,18.73,9.23,16.98,7.91z M8.31,10.31l-1.07,0.83l-0.02-0.91l1.06-1.3L8.31,10.31z"/>
</svg>
