<?xml version="1.0" encoding="utf-8"?>
<!-- Generator: Adobe Illustrator 23.0.1, SVG Export Plug-In . SVG Version: 6.00 Build 0)  -->
<svg version="1.1" id="Layer_1" xmlns="http://www.w3.org/2000/svg" xmlns:xlink="http://www.w3.org/1999/xlink" x="0px" y="0px"
	 viewBox="0 0 24 24" style="enable-background:new 0 0 24 24;" xml:space="preserve">
<path d="M54.28,6.64c2.96-0.06,5.42,2.3,5.48,5.27c0.06,2.96-2.3,5.42-5.27,5.48c-2.96,0.06-5.42-2.3-5.48-5.27
	S51.31,6.7,54.28,6.64 M54.21,3.42c-4.75,0.09-8.52,4.02-8.42,8.76c0.09,4.75,4.02,8.52,8.76,8.42c4.75-0.09,8.52-4.02,8.42-8.76
	C62.88,7.1,58.96,3.32,54.21,3.42L54.21,3.42z"/>
<polygon points="7.07,3.8 13.89,3.66 18.54,13.44 12.27,13.57 14.74,20.34 5.46,10.03 10.07,9.94 "/>
<g>
	<path d="M54.29,7.38c3.17-0.06,5.98,1.61,6.02,3.58c0.04,1.97-2.7,3.75-5.87,3.82s-5.98-1.61-6.02-3.58S51.12,7.45,54.29,7.38
		 M54.24,4.81c-4.71,0.09-8.47,2.98-8.4,6.44c0.07,3.47,3.94,6.2,8.64,6.11s8.47-2.98,8.4-6.44C62.82,7.45,58.95,4.71,54.24,4.81
		L54.24,4.81z"/>
	<path d="M50.46,19.14L50.46,19.14c-0.8,0.02-1.45-0.62-1.47-1.41l-0.05-2.49l2.88-0.06l0.05,2.49
		C51.89,18.47,51.25,19.13,50.46,19.14z"/>
	<path d="M55.48,18.83L55.48,18.83c-0.54,0.5-1.37,0.52-1.92,0.04l0,0c-0.31-0.27-0.49-0.66-0.5-1.07L53,15.16l2.88-0.06l0.05,2.64
		C55.94,18.16,55.78,18.55,55.48,18.83z"/>
	<path d="M58.58,18.98L58.58,18.98c-0.8,0.02-1.45-0.62-1.47-1.41l-0.05-2.49l2.88-0.06L60,17.51
		C60.01,18.31,59.38,18.97,58.58,18.98z"/>
</g>
</svg>
