<?xml version="1.0" encoding="utf-8"?>
<!-- Generator: Adobe Illustrator 23.0.1, SVG Export Plug-In . SVG Version: 6.00 Build 0)  -->
<svg version="1.1" id="Layer_1" xmlns="http://www.w3.org/2000/svg" xmlns:xlink="http://www.w3.org/1999/xlink" x="0px" y="0px"
	 viewBox="0 0 24 24" style="enable-background:new 0 0 24 24;" xml:space="preserve">
<path d="M22.56,12c-1.33,0-2.8-0.54-4.21-1.41l-1.77-1.77c0.14-0.99,0.35-1.76,0.64-2.05c-0.29,0.29-1.06,0.5-2.05,0.64l-1.77-1.77
	C12.54,4.24,12,2.77,12,1.44c0,1.33-0.54,2.8-1.41,4.21L8.82,7.42C7.83,7.28,7.06,7.06,6.77,6.77c0.29,0.29,0.5,1.06,0.64,2.05
	l-1.77,1.77C4.24,11.46,2.77,12,1.44,12c1.33,0,2.8,0.54,4.21,1.41l1.77,1.77c-0.14,0.99-0.35,1.76-0.64,2.05
	c0.29-0.29,1.06-0.5,2.05-0.64l1.77,1.77c0.87,1.41,1.41,2.88,1.41,4.21c0-1.33,0.54-2.8,1.41-4.21l1.77-1.77
	c0.99,0.14,1.76,0.35,2.05,0.64c-0.29-0.29-0.5-1.06-0.64-2.05l1.77-1.77C19.76,12.54,21.23,12,22.56,12z M12,14.04L9.96,12L12,9.96
	L14.04,12L12,14.04z"/>
</svg>
