<?xml version="1.0" encoding="utf-8"?>
<!-- Generator: Adobe Illustrator 23.0.1, SVG Export Plug-In . SVG Version: 6.00 Build 0)  -->
<svg version="1.1" id="Layer_1" xmlns="http://www.w3.org/2000/svg" xmlns:xlink="http://www.w3.org/1999/xlink" x="0px" y="0px"
	 viewBox="0 0 24 24" style="enable-background:new 0 0 24 24;" xml:space="preserve">
<style type="text/css">
	.st0{fill:#010101;}
</style>
<path class="st0" d="M6.76,9.34c0-0.13-0.11-0.25-0.25-0.24c-1.99,0.2-1.72,2.89-1.72,4.9c0,2.1,4.72,5.24,4.72,5.24
	s1.05,1.18,4.72,1.18c1.47,0,2.56-0.73,3.34-1.61c1.11-1.24,1.65-2.89,1.65-4.55V8.28c0-0.1-0.01-0.2-0.03-0.3L19.1,7.5
	c-0.16-0.78-0.9-1.38-1.68-1.22c-0.25,0.05-0.49,0.17-0.7,0.35l0,0l-0.17-0.38c-0.42-0.95-1.57-1.31-2.45-0.77l0,0l-0.46-0.64
	c-0.54-0.75-1.58-0.94-2.35-0.42l-0.6,0.41l-0.5-0.62C9.61,3.48,8.55,3.35,7.81,3.92l0,0C7.4,4.25,7.15,4.75,7.15,5.28
	c0,0,0,5.72,0,6.04c0,0.33-0.39,0.32-0.39,0C6.76,11,6.76,9.34,6.76,9.34z"/>
</svg>
