<?xml version="1.0" encoding="utf-8"?>
<!-- Generator: Adobe Illustrator 23.0.1, SVG Export Plug-In . SVG Version: 6.00 Build 0)  -->
<svg version="1.1" id="Layer_1" xmlns="http://www.w3.org/2000/svg" xmlns:xlink="http://www.w3.org/1999/xlink" x="0px" y="0px"
	 viewBox="0 0 24 24" style="enable-background:new 0 0 24 24;" xml:space="preserve">
<g>
	<g>
		<path d="M17.18,18.18c-0.74,1.36-2.13,2.26-3.68,2.33c-1.79,0.08-3.75-0.3-5.22-1.35c-0.98-0.7-1.7-1.71-2.1-2.84
			c-0.65-1.84-0.72-3.88,0.47-5.1c0.11-0.11,0.3-0.01,0.26,0.15c-0.14,0.59-0.26,1.57,0.28,2.12c0,0-0.24-0.88,0.64-2.35
			s2.29-3.43,2.64-4.67c0.22-0.77,0.29-1.67-0.02-2.69c-0.04-0.12,0.04-0.25,0.16-0.27c1.7-0.19,2.91,1.34,2.96,2.58
			c0.08,1.86-2.04,3.6-0.82,4.78s2.49,0.03,2.58-0.82c0.04-0.4-0.06-1.02-0.34-1.61c-0.09-0.2,0.14-0.4,0.32-0.26
			c1.14,0.87,2.96,1.84,2.96,5.01c0,3.73-2.86,4.35-3.85,4.45c-0.16,0.02-0.27-0.14-0.21-0.29c0.29-0.76,0.32-1.38,0.2-1.9
			c-0.33-1.45-2.14-1.98-3.31-1.06l-0.02,0.01c-0.67,0.53-0.96,1.41-0.73,2.23c0,0.01,0.01,0.02,0.01,0.04
			c0.33,0.89,1.01,1.61,1.87,2c0.13,0.06,0.28,0.11,0.44,0.15c1.27,0.35,2.64,0.16,3.82-0.43c0.27-0.13,0.5-0.25,0.61-0.29
			C17.16,18.08,17.2,18.13,17.18,18.18L17.18,18.18z"/>
	</g>
</g>
</svg>
