<?xml version="1.0" encoding="utf-8"?>
<!-- Generator: Adobe Illustrator 23.0.1, SVG Export Plug-In . SVG Version: 6.00 Build 0)  -->
<svg version="1.1" id="Layer_1" xmlns="http://www.w3.org/2000/svg" xmlns:xlink="http://www.w3.org/1999/xlink" x="0px" y="0px"
	 viewBox="0 0 24 24" style="enable-background:new 0 0 24 24;" xml:space="preserve">
<path d="M13.54,12.11c1.53-0.46,3.06-0.96,4.56-1.53c1.53-0.58,2.64-1.93,2.91-3.55L21,7c-2.09,1.18-4.27,2.22-6.5,3.11l-0.04,0.01
	c-0.12,0.04-0.24-0.03-0.28-0.15s0.03-0.24,0.15-0.28c1.52-0.6,3.02-1.28,4.48-2.03c1.51-0.77,2.65-2.88,2.64-4.57l0-0.02
	c-4.34,3.9-9.28,4.72-12.28,4.61c-3.66,0-6.63,2.97-6.63,6.63s2.97,6.63,6.63,6.63c1.02,0,1.72-0.1,2.32-0.39
	c1.88-0.63,4.38-2.29,5.31-3.61l0.09-0.13c-1.33,0.32-2.61,0.59-4.15,0.86c-0.01,0-0.01,0-0.02,0c-0.12,0.02-0.23-0.07-0.24-0.18
	c0-0.01,0-0.01,0-0.02c-0.02-0.12,0.07-0.23,0.19-0.24c0.54-0.09,1.07-0.19,1.6-0.3c2.02-0.4,3.74-1.71,4.65-3.56l0.06-0.12
	c-1.82,0.61-3.68,1.16-5.55,1.6c-0.12,0.03-0.24-0.05-0.27-0.17c-0.03-0.12,0.05-0.24,0.17-0.27c1.2-0.3,2.41-0.62,3.61-0.98
	c1.54-0.47,2.76-1.66,3.26-3.19l0.01-0.02c-2.13,0.9-4.31,1.68-6.53,2.33l-0.02,0c-0.12,0.03-0.25-0.04-0.28-0.17
	C13.34,12.26,13.41,12.14,13.54,12.11z"/>
</svg>
