<?xml version="1.0" encoding="utf-8"?>
<!-- Generator: Adobe Illustrator 23.0.1, SVG Export Plug-In . SVG Version: 6.00 Build 0)  -->
<svg version="1.1" id="Layer_1" xmlns="http://www.w3.org/2000/svg" xmlns:xlink="http://www.w3.org/1999/xlink" x="0px" y="0px"
	 viewBox="0 0 24 24" style="enable-background:new 0 0 24 24;" xml:space="preserve">
<path d="M19.26,18.72c-1.61,0-2.16-0.94-1.62-1.53c1.35-1.15,2.18-2.78,2.18-4.79c0-4.13-3.5-7.48-7.81-7.48
	c-4.31,0-7.81,3.35-7.81,7.48c0,3.93,3.16,6.42,7.18,6.66l0.03,0.02c0,0,7.56,0,7.86,0C19.52,19.08,19.48,18.72,19.26,18.72z
	 M13.93,11.56c0,0,1.01-0.35,1.36-0.75c0.09-0.21,0.14-0.31,0.14-0.56c0-0.25-0.05-0.48-0.14-0.69c0.55,0.27,0.93,0.86,0.93,1.55
	c0,0.75-0.45,1.38-1.07,1.61c-0.16,0.06-0.32,0.09-0.49,0.09c-0.42,0-0.79-0.18-1.07-0.47c-0.08-0.14-0.16-0.57-0.16-0.57
	L13.93,11.56z M7.78,11.11c0-0.69,0.38-1.29,0.93-1.55C8.63,9.77,8.57,10,8.57,10.25c0,0.25,0.05,0.34,0.14,0.56
	c0.35,0.41,1.36,0.75,1.36,0.75l0.51,0.22c0,0-0.08,0.43-0.16,0.57c-0.28,0.29-0.66,0.47-1.07,0.47c-0.17,0-0.34-0.04-0.49-0.09
	C8.24,12.5,7.78,11.86,7.78,11.11z"/>
</svg>
