<?xml version="1.0" encoding="utf-8"?>
<!-- Generator: Adobe Illustrator 23.0.1, SVG Export Plug-In . SVG Version: 6.00 Build 0)  -->
<svg version="1.1" id="Layer_1" xmlns="http://www.w3.org/2000/svg" xmlns:xlink="http://www.w3.org/1999/xlink" x="0px" y="0px"
	 viewBox="0 0 24 24" style="enable-background:new 0 0 24 24;" xml:space="preserve">
<path d="M18.92,3.4l-8.74,1.18l0,0.04c-4.04,0.92-6.78,4.78-6.21,8.97c0.23,1.68,0.95,3.16,2.01,4.33l2.95-3.17
	c0-0.35,0.01-0.69,0.03-1.04c0.03-0.43,0.04-0.87,0.1-1.3c0.09-0.87,0.22-1.73,0.47-2.6c0.25,0.87,0.38,1.73,0.47,2.6
	c0.05,0.36,0.06,0.73,0.09,1.09l1.88-2.02l0-0.04c0-0.5,0.04-1,0.13-1.5c0.1-0.5,0.22-1,0.48-1.5c0.25,0.5,0.38,1,0.48,1.5
	c0.02,0.11,0.03,0.22,0.04,0.33l2.47-2.65l-2.2,3.25c0.24,0.02,0.47,0.05,0.71,0.09c0.5,0.1,1,0.22,1.5,0.47
	c-0.5,0.25-1,0.38-1.5,0.47c-0.5,0.09-1,0.13-1.5,0.13h-0.01l-1.62,2.4c0.39,0.03,0.78,0.04,1.18,0.09c0.87,0.09,1.73,0.22,2.6,0.47
	c-0.87,0.25-1.73,0.38-2.6,0.47c-0.43,0.06-0.87,0.07-1.3,0.1c-0.22,0.01-0.44,0.01-0.66,0.02l-2.52,3.72
	c1.56,0.99,3.45,1.46,5.43,1.2c4.18-0.57,7.18-4.23,6.99-8.37l0.04,0L18.92,3.4z"/>
</svg>
