<?xml version="1.0" encoding="utf-8"?>
<!-- Generator: Adobe Illustrator 23.0.1, SVG Export Plug-In . SVG Version: 6.00 Build 0)  -->
<svg version="1.1" id="Layer_1" xmlns="http://www.w3.org/2000/svg" xmlns:xlink="http://www.w3.org/1999/xlink" x="0px" y="0px"
	 viewBox="0 0 24 24" style="enable-background:new 0 0 24 24;" xml:space="preserve">
<style type="text/css">
	.st0{enable-background:new    ;}
	.st1{clip-path:url(#SVGID_2_);}
	.st2{clip-path:url(#SVGID_4_);}
	.st3{clip-path:url(#SVGID_6_);}
	.st4{clip-path:url(#SVGID_8_);}
	.st5{clip-path:url(#SVGID_10_);}
	.st6{clip-path:url(#SVGID_12_);}
</style>
<g>
	<g>
		<g class="st0">
			<defs>
				<polygon id="SVGID_1_" class="st0" points="7.16,8.65 7.17,3.51 11.65,6.09 11.63,11.24 				"/>
			</defs>
			<use xlink:href="#SVGID_1_"  style="overflow:visible;"/>
			<clipPath id="SVGID_2_">
				<use xlink:href="#SVGID_1_"  style="overflow:visible;"/>
			</clipPath>
			<g class="st1">
				<polyline points="11.65,6.09 7.17,3.51 7.16,8.65 11.63,11.24 11.65,6.09 				"/>
			</g>
		</g>
	</g>
	<g>
		<g class="st0">
			<defs>
				<polygon id="SVGID_3_" class="st0" points="12.52,11.24 12.5,6.09 16.97,3.51 16.99,8.65 				"/>
			</defs>
			<use xlink:href="#SVGID_3_"  style="overflow:visible;"/>
			<clipPath id="SVGID_4_">
				<use xlink:href="#SVGID_3_"  style="overflow:visible;"/>
			</clipPath>
			<g class="st2">
				<polyline points="16.97,3.51 12.5,6.09 12.52,11.24 16.99,8.65 16.97,3.51 				"/>
			</g>
		</g>
	</g>
	<g>
		<g class="st0">
			<defs>
				<polygon id="SVGID_5_" class="st0" points="12.5,17.91 12.52,12.76 16.99,15.35 16.97,20.49 				"/>
			</defs>
			<use xlink:href="#SVGID_5_"  style="overflow:visible;"/>
			<clipPath id="SVGID_6_">
				<use xlink:href="#SVGID_5_"  style="overflow:visible;"/>
			</clipPath>
			<g class="st3">
				<polyline points="16.99,15.35 12.52,12.76 12.5,17.91 16.97,20.49 16.99,15.35 				"/>
			</g>
		</g>
	</g>
	<g>
		<g class="st0">
			<defs>
				<polygon id="SVGID_7_" class="st0" points="7.17,20.49 7.16,15.35 11.63,12.76 11.65,17.91 				"/>
			</defs>
			<use xlink:href="#SVGID_7_"  style="overflow:visible;"/>
			<clipPath id="SVGID_8_">
				<use xlink:href="#SVGID_7_"  style="overflow:visible;"/>
			</clipPath>
			<g class="st4">
				<polyline points="11.63,12.76 7.16,15.35 7.17,20.49 11.65,17.91 11.63,12.76 				"/>
			</g>
		</g>
	</g>
	<g>
		<g class="st0">
			<defs>
				<polygon id="SVGID_9_" class="st0" points="2.54,12 7,9.41 11.48,12 7.03,14.59 				"/>
			</defs>
			<use xlink:href="#SVGID_9_"  style="overflow:visible;"/>
			<clipPath id="SVGID_10_">
				<use xlink:href="#SVGID_9_"  style="overflow:visible;"/>
			</clipPath>
			<g class="st5">
				<polyline points="11.48,12 7,9.41 2.54,12 7.03,14.59 11.48,12 				"/>
			</g>
		</g>
	</g>
	<g>
		<g class="st0">
			<defs>
				<polygon id="SVGID_11_" class="st0" points="12.52,12 16.97,9.41 21.46,12 17,14.59 				"/>
			</defs>
			<use xlink:href="#SVGID_11_"  style="overflow:visible;"/>
			<clipPath id="SVGID_12_">
				<use xlink:href="#SVGID_11_"  style="overflow:visible;"/>
			</clipPath>
			<g class="st6">
				<polyline points="21.46,12 16.97,9.41 12.52,12 17,14.59 21.46,12 				"/>
			</g>
		</g>
	</g>
</g>
</svg>
