<?xml version="1.0" encoding="utf-8"?>
<!-- Generator: Adobe Illustrator 23.0.1, SVG Export Plug-In . SVG Version: 6.00 Build 0)  -->
<svg version="1.1" id="Layer_1" xmlns="http://www.w3.org/2000/svg" xmlns:xlink="http://www.w3.org/1999/xlink" x="0px" y="0px"
	 viewBox="0 0 24 24" style="enable-background:new 0 0 24 24;" xml:space="preserve">
<path d="M20.52,10.9c-0.07-3.47-3.94-6.2-8.64-6.11s-8.47,2.98-8.4,6.44c0.04,1.92,1.24,3.61,3.11,4.73l0.03,1.75
	c0.02,0.8,0.67,1.43,1.47,1.41s1.43-0.67,1.41-1.47L9.5,17.09c0.38,0.08,0.78,0.14,1.18,0.19l0.01,0.51c0.01,0.41,0.19,0.8,0.5,1.07
	h0c0.56,0.48,1.38,0.46,1.92-0.04c0.3-0.28,0.47-0.67,0.46-1.08l-0.01-0.51c0.4-0.06,0.8-0.13,1.18-0.23l0.01,0.57
	c0.02,0.8,0.67,1.43,1.47,1.41c0.8-0.02,1.43-0.67,1.41-1.47l-0.03-1.75C19.42,14.56,20.56,12.82,20.52,10.9z M12.07,14.77
	c-3.17,0.06-5.98-1.61-6.02-3.58s2.7-3.75,5.87-3.82s5.98,1.61,6.02,3.58S15.24,14.71,12.07,14.77z"/>
</svg>
