<?xml version="1.0" encoding="utf-8"?>
<!-- Generator: Adobe Illustrator 23.0.1, SVG Export Plug-In . SVG Version: 6.00 Build 0)  -->
<svg version="1.1" id="Layer_1" xmlns="http://www.w3.org/2000/svg" xmlns:xlink="http://www.w3.org/1999/xlink" x="0px" y="0px"
	 viewBox="0 0 24 24" style="enable-background:new 0 0 24 24;" xml:space="preserve">
<style type="text/css">
	.st0{fill:#010101;}
</style>
<path class="st0" d="M14.08,12.96c0.23-0.15,0.33-0.38,0.34-0.62c0.02-0.24-0.08-0.51-0.17-0.75c-0.1-0.24-0.25-0.44-0.42-0.6
	c-0.69-0.65-1.88-0.5-2.44,0.09c-0.29,0.28-0.43,0.63-0.44,1.03c-0.03,0.18,0.02,0.44,0.05,0.68c0.04,0.24,0.1,0.46,0.18,0.67
	c0.32,0.82,1.01,1.33,1.7,1.39c0.08,0.01,0.16,0.01,0.24,0l0.43-0.02c0.28-0.02,0.54-0.04,0.79-0.08c0.5-0.07,0.96-0.19,1.31-0.36
	c0.7-0.36,0.92-0.81,1.01-1.66c0.01-0.41,0.01-0.92-0.09-1.37c-0.02-0.23-0.12-0.45-0.16-0.67c-0.09-0.21-0.15-0.43-0.26-0.62
	c-0.38-0.81-1.01-1.48-1.77-1.94c-0.38-0.24-0.8-0.41-1.24-0.55c-0.44-0.12-0.9-0.18-1.37-0.2c-0.95-0.03-1.88,0.18-2.62,0.61
	c-0.76,0.42-1.32,1.1-1.72,1.96c-0.38,0.87-0.57,1.92-0.62,3c-0.04,1.07,0.06,2.12,0.43,3.02c0.36,0.9,1.05,1.62,1.99,2.09
	c0.93,0.49,2.08,0.69,3.24,0.77c1.06,0.08,2.13,0.02,3.56-0.18c0,0.57-2.28,0.88-3.52,1.07c-1.23,0.19-2.54,0.2-3.85-0.19
	c-1.3-0.39-2.56-1.32-3.29-2.58c-0.75-1.24-1.01-2.64-1.09-3.96c-0.06-1.32,0.03-2.7,0.51-4.07c0.49-1.36,1.44-2.7,2.76-3.52
	c1.3-0.85,2.81-1.18,4.26-1.19c1.47,0.01,2.96,0.4,4.25,1.18c1.28,0.79,2.35,1.96,2.98,3.34c0.17,0.34,0.27,0.7,0.4,1.05
	c0.08,0.36,0.2,0.72,0.23,1.09c0.06,0.36,0.09,0.73,0.09,1.09c0.03,0.35-0.02,0.75-0.05,1.13c-0.11,0.78-0.35,1.61-0.88,2.36
	c-0.52,0.75-1.3,1.29-2.05,1.58c-0.76,0.3-1.5,0.41-2.19,0.45c-0.35,0.01-0.69,0.02-1.01,0l-0.47-0.02
	c-0.22-0.01-0.44-0.04-0.66-0.08c-1.72-0.34-2.97-1.8-3.29-3.29c-0.08-0.37-0.12-0.74-0.13-1.1c0.01-0.36,0-0.71,0.1-1.12
	c0.15-0.79,0.63-1.57,1.31-2.01c0.68-0.44,1.46-0.6,2.21-0.5c0.74,0.09,1.47,0.47,1.88,1.1c0.21,0.31,0.33,0.65,0.4,0.99
	c0.04,0.34,0.09,0.67-0.02,1.03c-0.09,0.35-0.38,0.66-0.7,0.76c0,0-0.31,0.18-0.44,0.05C13.62,13.11,14.08,12.96,14.08,12.96z"/>
</svg>
