<?xml version="1.0" encoding="utf-8"?>
<!-- Generator: Adobe Illustrator 23.0.1, SVG Export Plug-In . SVG Version: 6.00 Build 0)  -->
<svg version="1.1" id="Layer_1" xmlns="http://www.w3.org/2000/svg" xmlns:xlink="http://www.w3.org/1999/xlink" x="0px" y="0px"
	 viewBox="0 0 24 24" style="enable-background:new 0 0 24 24;" xml:space="preserve">
<g>
	<path d="M3.58,10.03l4.95-4.78c0.36-0.34,0.83-0.53,1.32-0.53h5c0.65,0,1.19,0.52,1.19,1.17c0,1.33-0.24,3.55-1.65,5.26
		c-2.16,2.62-6.49,4.98-8.06,5.17c-1.57,0.2-2.75-1.77-2.75-1.77V10.03z"/>
	<path d="M17.79,5.85c0.04-0.31,0.43-0.42,0.64-0.19c0.72,0.8,1.92,2.57,1.99,5.65c0.07,2.97-1.18,3.34-2.16,3.26
		c-0.48-0.04-2-1.67-2-1.67c-0.22-0.48-0.26-1.02-0.11-1.53l0.34-1.13c0.64-1.28,1.06-2.65,1.26-4.06L17.79,5.85z"/>
	<path d="M15.68,13.79l1.36,1.61c0.34,0.4,0.32,0.99-0.05,1.36l-1.83,1.85c-0.49,0.5-1.18,0.73-1.87,0.64
		c-0.76-0.1-2.62-0.43-4.19-1.01c-0.54-0.2-0.58-0.95-0.07-1.21c1.95-0.99,3.37-1.7,5.06-3.32C14.55,13.28,15.28,13.32,15.68,13.79z
		"/>
</g>
</svg>
