<?xml version="1.0" encoding="utf-8"?>
<!-- Generator: Adobe Illustrator 23.0.1, SVG Export Plug-In . SVG Version: 6.00 Build 0)  -->
<svg version="1.1" id="Layer_1" xmlns="http://www.w3.org/2000/svg" xmlns:xlink="http://www.w3.org/1999/xlink" x="0px" y="0px"
	 viewBox="0 0 24 24" style="enable-background:new 0 0 24 24;" xml:space="preserve">
<g>
	<path d="M15.64,4.38L8.33,4.39c-0.46,0-0.88,0.25-1.11,0.65l-3.64,6.34c-0.23,0.4-0.23,0.89,0,1.29l3.67,6.32
		c0.23,0.4,0.66,0.64,1.12,0.64l7.31-0.02c0.46,0,0.88-0.25,1.11-0.65l3.64-6.34c0.23-0.4,0.23-0.89,0-1.29l-3.67-6.32
		C16.52,4.62,16.1,4.38,15.64,4.38z M12.01,15.98c-2.2,0-3.99-1.77-3.99-3.97c0-2.2,1.77-3.99,3.97-3.99c2.2,0,3.99,1.77,3.99,3.97
		C15.99,14.19,14.21,15.98,12.01,15.98z"/>
</g>
</svg>
