<?xml version="1.0" encoding="utf-8"?>
<!-- Generator: Adobe Illustrator 23.0.1, SVG Export Plug-In . SVG Version: 6.00 Build 0)  -->
<svg version="1.1" id="Layer_1" xmlns="http://www.w3.org/2000/svg" xmlns:xlink="http://www.w3.org/1999/xlink" x="0px" y="0px"
	 viewBox="0 0 24 24" style="enable-background:new 0 0 24 24;" xml:space="preserve">
<path d="M12.14,2.62c0,0-2.05,3.85-3.86,7.38c-1.41,2.77-2.82,5.01-1.98,7.19c1.73,4.46,5.91,4.2,5.91,4.2s3.85,0.3,5.46-4.29
	C19.43,12.07,12.14,2.62,12.14,2.62z M14.51,17.48c-0.95,1.54-2.97,2.03-4.51,1.08c-1.54-0.95-2.03-2.97-1.08-4.51
	C9,13.9,9.1,13.77,9.2,13.65c-0.11,1.32,0.5,2.66,1.71,3.41c1.21,0.74,2.68,0.69,3.81-0.01C14.66,17.19,14.59,17.34,14.51,17.48z"/>
</svg>
